<?xml version="1.0" encoding="utf-8" standalone="no"?>
<!DOCTYPE svg PUBLIC "-//W3C//DTD SVG 1.1//EN"
  "http://www.w3.org/Graphics/SVG/1.1/DTD/svg11.dtd">
<svg xmlns:xlink="http://www.w3.org/1999/xlink" width="864pt" height="432pt" viewBox="0 0 864 432" xmlns="http://www.w3.org/2000/svg" version="1.1">
 <metadata>
  <rdf:RDF xmlns:dc="http://purl.org/dc/elements/1.1/" xmlns:cc="http://creativecommons.org/ns#" xmlns:rdf="http://www.w3.org/1999/02/22-rdf-syntax-ns#">
   <cc:Work>
    <dc:type rdf:resource="http://purl.org/dc/dcmitype/StillImage"/>
    <dc:date>2025-11-10T01:50:12.282391</dc:date>
    <dc:format>image/svg+xml</dc:format>
    <dc:creator>
     <cc:Agent>
      <dc:title>Matplotlib v3.10.6, https://matplotlib.org/</dc:title>
     </cc:Agent>
    </dc:creator>
   </cc:Work>
  </rdf:RDF>
 </metadata>
 <defs>
  <style type="text/css">*{stroke-linejoin: round; stroke-linecap: butt}</style>
 </defs>
 <g id="figure_1">
  <g id="patch_1">
   <path d="M 0 432 
L 864 432 
L 864 0 
L 0 0 
z
" style="fill: #ffffff"/>
  </g>
  <g id="axes_1">
   <g id="patch_2">
    <path d="M 108 370.341818 
L 412.363636 370.341818 
L 412.363636 65.978182 
L 108 65.978182 
z
" style="fill: #ffffff"/>
   </g>
   <g id="PathCollection_1">
    <defs>
     <path id="C0_0_b5f0b1ceb8" d="M 0 3 
C 0.795609 3 1.55874 2.683901 2.12132 2.12132 
C 2.683901 1.55874 3 0.795609 3 -0 
C 3 -0.795609 2.683901 -1.55874 2.12132 -2.12132 
C 1.55874 -2.683901 0.795609 -3 0 -3 
C -0.795609 -3 -1.55874 -2.683901 -2.12132 -2.12132 
C -2.683901 -1.55874 -3 -0.795609 -3 0 
C -3 0.795609 -2.683901 1.55874 -2.12132 2.12132 
C -1.55874 2.683901 -0.795609 3 0 3 
z
"/>
    </defs>
    <g clip-path="url(#pb2e413f806)">
     <use xlink:href="#C0_0_b5f0b1ceb8" x="347.142857" y="174.679481" style="fill: #ff0000; stroke: #ff0000"/>
    </g>
    <g clip-path="url(#pb2e413f806)">
     <use xlink:href="#C0_0_b5f0b1ceb8" x="390.623377" y="261.640519" style="fill: #fcf500; stroke: #fcf500"/>
    </g>
    <g clip-path="url(#pb2e413f806)">
     <use xlink:href="#C0_0_b5f0b1ceb8" x="260.181818" y="348.601558" style="fill: #08ff00; stroke: #08ff00"/>
    </g>
    <g clip-path="url(#pb2e413f806)">
     <use xlink:href="#C0_0_b5f0b1ceb8" x="173.220779" y="305.121039" style="fill: #00fff6; stroke: #00fff6"/>
    </g>
    <g clip-path="url(#pb2e413f806)">
     <use xlink:href="#C0_0_b5f0b1ceb8" x="173.220779" y="87.718442" style="fill: #0010ff; stroke: #0010ff"/>
    </g>
    <g clip-path="url(#pb2e413f806)">
     <use xlink:href="#C0_0_b5f0b1ceb8" x="260.181818" y="131.198961" style="fill: #ee00ff; stroke: #ee00ff"/>
    </g>
   </g>
   <g id="matplotlib.axis_1">
    <g id="xtick_1">
     <g id="line2d_1">
      <path d="M 129.74026 370.341818 
L 129.74026 65.978182 
" clip-path="url(#pb2e413f806)" style="fill: none; stroke: #b0b0b0; stroke-width: 0.8; stroke-linecap: square"/>
     </g>
     <g id="line2d_2">
      <defs>
       <path id="maed11afde9" d="M 0 0 
L 0 3.5 
" style="stroke: #000000; stroke-width: 0.8"/>
      </defs>
      <g>
       <use xlink:href="#maed11afde9" x="129.74026" y="370.341818" style="stroke: #000000; stroke-width: 0.8"/>
      </g>
     </g>
     <g id="text_1">
      <!-- −6 -->
      <g transform="translate(122.369166 384.940256) scale(0.1 -0.1)">
       <defs>
        <path id="DejaVuSans-2212" d="M 678 2272 
L 4684 2272 
L 4684 1741 
L 678 1741 
L 678 2272 
z
" transform="scale(0.015625)"/>
        <path id="DejaVuSans-36" d="M 2113 2584 
Q 1688 2584 1439 2293 
Q 1191 2003 1191 1497 
Q 1191 994 1439 701 
Q 1688 409 2113 409 
Q 2538 409 2786 701 
Q 3034 994 3034 1497 
Q 3034 2003 2786 2293 
Q 2538 2584 2113 2584 
z
M 3366 4563 
L 3366 3988 
Q 3128 4100 2886 4159 
Q 2644 4219 2406 4219 
Q 1781 4219 1451 3797 
Q 1122 3375 1075 2522 
Q 1259 2794 1537 2939 
Q 1816 3084 2150 3084 
Q 2853 3084 3261 2657 
Q 3669 2231 3669 1497 
Q 3669 778 3244 343 
Q 2819 -91 2113 -91 
Q 1303 -91 875 529 
Q 447 1150 447 2328 
Q 447 3434 972 4092 
Q 1497 4750 2381 4750 
Q 2619 4750 2861 4703 
Q 3103 4656 3366 4563 
z
" transform="scale(0.015625)"/>
       </defs>
       <use xlink:href="#DejaVuSans-2212"/>
       <use xlink:href="#DejaVuSans-36" transform="translate(83.789062 0)"/>
      </g>
     </g>
    </g>
    <g id="xtick_2">
     <g id="line2d_3">
      <path d="M 173.220779 370.341818 
L 173.220779 65.978182 
" clip-path="url(#pb2e413f806)" style="fill: none; stroke: #b0b0b0; stroke-width: 0.8; stroke-linecap: square"/>
     </g>
     <g id="line2d_4">
      <g>
       <use xlink:href="#maed11afde9" x="173.220779" y="370.341818" style="stroke: #000000; stroke-width: 0.8"/>
      </g>
     </g>
     <g id="text_2">
      <!-- −4 -->
      <g transform="translate(165.849685 384.940256) scale(0.1 -0.1)">
       <defs>
        <path id="DejaVuSans-34" d="M 2419 4116 
L 825 1625 
L 2419 1625 
L 2419 4116 
z
M 2253 4666 
L 3047 4666 
L 3047 1625 
L 3713 1625 
L 3713 1100 
L 3047 1100 
L 3047 0 
L 2419 0 
L 2419 1100 
L 313 1100 
L 313 1709 
L 2253 4666 
z
" transform="scale(0.015625)"/>
       </defs>
       <use xlink:href="#DejaVuSans-2212"/>
       <use xlink:href="#DejaVuSans-34" transform="translate(83.789062 0)"/>
      </g>
     </g>
    </g>
    <g id="xtick_3">
     <g id="line2d_5">
      <path d="M 216.701299 370.341818 
L 216.701299 65.978182 
" clip-path="url(#pb2e413f806)" style="fill: none; stroke: #b0b0b0; stroke-width: 0.8; stroke-linecap: square"/>
     </g>
     <g id="line2d_6">
      <g>
       <use xlink:href="#maed11afde9" x="216.701299" y="370.341818" style="stroke: #000000; stroke-width: 0.8"/>
      </g>
     </g>
     <g id="text_3">
      <!-- −2 -->
      <g transform="translate(209.330205 384.940256) scale(0.1 -0.1)">
       <defs>
        <path id="DejaVuSans-32" d="M 1228 531 
L 3431 531 
L 3431 0 
L 469 0 
L 469 531 
Q 828 903 1448 1529 
Q 2069 2156 2228 2338 
Q 2531 2678 2651 2914 
Q 2772 3150 2772 3378 
Q 2772 3750 2511 3984 
Q 2250 4219 1831 4219 
Q 1534 4219 1204 4116 
Q 875 4013 500 3803 
L 500 4441 
Q 881 4594 1212 4672 
Q 1544 4750 1819 4750 
Q 2544 4750 2975 4387 
Q 3406 4025 3406 3419 
Q 3406 3131 3298 2873 
Q 3191 2616 2906 2266 
Q 2828 2175 2409 1742 
Q 1991 1309 1228 531 
z
" transform="scale(0.015625)"/>
       </defs>
       <use xlink:href="#DejaVuSans-2212"/>
       <use xlink:href="#DejaVuSans-32" transform="translate(83.789062 0)"/>
      </g>
     </g>
    </g>
    <g id="xtick_4">
     <g id="line2d_7">
      <path d="M 260.181818 370.341818 
L 260.181818 65.978182 
" clip-path="url(#pb2e413f806)" style="fill: none; stroke: #b0b0b0; stroke-width: 0.8; stroke-linecap: square"/>
     </g>
     <g id="line2d_8">
      <g>
       <use xlink:href="#maed11afde9" x="260.181818" y="370.341818" style="stroke: #000000; stroke-width: 0.8"/>
      </g>
     </g>
     <g id="text_4">
      <!-- 0 -->
      <g transform="translate(257.000568 384.940256) scale(0.1 -0.1)">
       <defs>
        <path id="DejaVuSans-30" d="M 2034 4250 
Q 1547 4250 1301 3770 
Q 1056 3291 1056 2328 
Q 1056 1369 1301 889 
Q 1547 409 2034 409 
Q 2525 409 2770 889 
Q 3016 1369 3016 2328 
Q 3016 3291 2770 3770 
Q 2525 4250 2034 4250 
z
M 2034 4750 
Q 2819 4750 3233 4129 
Q 3647 3509 3647 2328 
Q 3647 1150 3233 529 
Q 2819 -91 2034 -91 
Q 1250 -91 836 529 
Q 422 1150 422 2328 
Q 422 3509 836 4129 
Q 1250 4750 2034 4750 
z
" transform="scale(0.015625)"/>
       </defs>
       <use xlink:href="#DejaVuSans-30"/>
      </g>
     </g>
    </g>
    <g id="xtick_5">
     <g id="line2d_9">
      <path d="M 303.662338 370.341818 
L 303.662338 65.978182 
" clip-path="url(#pb2e413f806)" style="fill: none; stroke: #b0b0b0; stroke-width: 0.8; stroke-linecap: square"/>
     </g>
     <g id="line2d_10">
      <g>
       <use xlink:href="#maed11afde9" x="303.662338" y="370.341818" style="stroke: #000000; stroke-width: 0.8"/>
      </g>
     </g>
     <g id="text_5">
      <!-- 2 -->
      <g transform="translate(300.481088 384.940256) scale(0.1 -0.1)">
       <use xlink:href="#DejaVuSans-32"/>
      </g>
     </g>
    </g>
    <g id="xtick_6">
     <g id="line2d_11">
      <path d="M 347.142857 370.341818 
L 347.142857 65.978182 
" clip-path="url(#pb2e413f806)" style="fill: none; stroke: #b0b0b0; stroke-width: 0.8; stroke-linecap: square"/>
     </g>
     <g id="line2d_12">
      <g>
       <use xlink:href="#maed11afde9" x="347.142857" y="370.341818" style="stroke: #000000; stroke-width: 0.8"/>
      </g>
     </g>
     <g id="text_6">
      <!-- 4 -->
      <g transform="translate(343.961607 384.940256) scale(0.1 -0.1)">
       <use xlink:href="#DejaVuSans-34"/>
      </g>
     </g>
    </g>
    <g id="xtick_7">
     <g id="line2d_13">
      <path d="M 390.623377 370.341818 
L 390.623377 65.978182 
" clip-path="url(#pb2e413f806)" style="fill: none; stroke: #b0b0b0; stroke-width: 0.8; stroke-linecap: square"/>
     </g>
     <g id="line2d_14">
      <g>
       <use xlink:href="#maed11afde9" x="390.623377" y="370.341818" style="stroke: #000000; stroke-width: 0.8"/>
      </g>
     </g>
     <g id="text_7">
      <!-- 6 -->
      <g transform="translate(387.442127 384.940256) scale(0.1 -0.1)">
       <use xlink:href="#DejaVuSans-36"/>
      </g>
     </g>
    </g>
   </g>
   <g id="matplotlib.axis_2">
    <g id="ytick_1">
     <g id="line2d_15">
      <path d="M 108 348.601558 
L 412.363636 348.601558 
" clip-path="url(#pb2e413f806)" style="fill: none; stroke: #b0b0b0; stroke-width: 0.8; stroke-linecap: square"/>
     </g>
     <g id="line2d_16">
      <defs>
       <path id="m2fec36f5c7" d="M 0 0 
L -3.5 0 
" style="stroke: #000000; stroke-width: 0.8"/>
      </defs>
      <g>
       <use xlink:href="#m2fec36f5c7" x="108" y="348.601558" style="stroke: #000000; stroke-width: 0.8"/>
      </g>
     </g>
     <g id="text_8">
      <!-- −6 -->
      <g transform="translate(86.257812 352.400777) scale(0.1 -0.1)">
       <use xlink:href="#DejaVuSans-2212"/>
       <use xlink:href="#DejaVuSans-36" transform="translate(83.789062 0)"/>
      </g>
     </g>
    </g>
    <g id="ytick_2">
     <g id="line2d_17">
      <path d="M 108 305.121039 
L 412.363636 305.121039 
" clip-path="url(#pb2e413f806)" style="fill: none; stroke: #b0b0b0; stroke-width: 0.8; stroke-linecap: square"/>
     </g>
     <g id="line2d_18">
      <g>
       <use xlink:href="#m2fec36f5c7" x="108" y="305.121039" style="stroke: #000000; stroke-width: 0.8"/>
      </g>
     </g>
     <g id="text_9">
      <!-- −4 -->
      <g transform="translate(86.257812 308.920258) scale(0.1 -0.1)">
       <use xlink:href="#DejaVuSans-2212"/>
       <use xlink:href="#DejaVuSans-34" transform="translate(83.789062 0)"/>
      </g>
     </g>
    </g>
    <g id="ytick_3">
     <g id="line2d_19">
      <path d="M 108 261.640519 
L 412.363636 261.640519 
" clip-path="url(#pb2e413f806)" style="fill: none; stroke: #b0b0b0; stroke-width: 0.8; stroke-linecap: square"/>
     </g>
     <g id="line2d_20">
      <g>
       <use xlink:href="#m2fec36f5c7" x="108" y="261.640519" style="stroke: #000000; stroke-width: 0.8"/>
      </g>
     </g>
     <g id="text_10">
      <!-- −2 -->
      <g transform="translate(86.257812 265.439738) scale(0.1 -0.1)">
       <use xlink:href="#DejaVuSans-2212"/>
       <use xlink:href="#DejaVuSans-32" transform="translate(83.789062 0)"/>
      </g>
     </g>
    </g>
    <g id="ytick_4">
     <g id="line2d_21">
      <path d="M 108 218.16 
L 412.363636 218.16 
" clip-path="url(#pb2e413f806)" style="fill: none; stroke: #b0b0b0; stroke-width: 0.8; stroke-linecap: square"/>
     </g>
     <g id="line2d_22">
      <g>
       <use xlink:href="#m2fec36f5c7" x="108" y="218.16" style="stroke: #000000; stroke-width: 0.8"/>
      </g>
     </g>
     <g id="text_11">
      <!-- 0 -->
      <g transform="translate(94.6375 221.959219) scale(0.1 -0.1)">
       <use xlink:href="#DejaVuSans-30"/>
      </g>
     </g>
    </g>
    <g id="ytick_5">
     <g id="line2d_23">
      <path d="M 108 174.679481 
L 412.363636 174.679481 
" clip-path="url(#pb2e413f806)" style="fill: none; stroke: #b0b0b0; stroke-width: 0.8; stroke-linecap: square"/>
     </g>
     <g id="line2d_24">
      <g>
       <use xlink:href="#m2fec36f5c7" x="108" y="174.679481" style="stroke: #000000; stroke-width: 0.8"/>
      </g>
     </g>
     <g id="text_12">
      <!-- 2 -->
      <g transform="translate(94.6375 178.478699) scale(0.1 -0.1)">
       <use xlink:href="#DejaVuSans-32"/>
      </g>
     </g>
    </g>
    <g id="ytick_6">
     <g id="line2d_25">
      <path d="M 108 131.198961 
L 412.363636 131.198961 
" clip-path="url(#pb2e413f806)" style="fill: none; stroke: #b0b0b0; stroke-width: 0.8; stroke-linecap: square"/>
     </g>
     <g id="line2d_26">
      <g>
       <use xlink:href="#m2fec36f5c7" x="108" y="131.198961" style="stroke: #000000; stroke-width: 0.8"/>
      </g>
     </g>
     <g id="text_13">
      <!-- 4 -->
      <g transform="translate(94.6375 134.99818) scale(0.1 -0.1)">
       <use xlink:href="#DejaVuSans-34"/>
      </g>
     </g>
    </g>
    <g id="ytick_7">
     <g id="line2d_27">
      <path d="M 108 87.718442 
L 412.363636 87.718442 
" clip-path="url(#pb2e413f806)" style="fill: none; stroke: #b0b0b0; stroke-width: 0.8; stroke-linecap: square"/>
     </g>
     <g id="line2d_28">
      <g>
       <use xlink:href="#m2fec36f5c7" x="108" y="87.718442" style="stroke: #000000; stroke-width: 0.8"/>
      </g>
     </g>
     <g id="text_14">
      <!-- 6 -->
      <g transform="translate(94.6375 91.51766) scale(0.1 -0.1)">
       <use xlink:href="#DejaVuSans-36"/>
      </g>
     </g>
    </g>
   </g>
   <g id="line2d_29">
    <path d="M 260.181818 218.16 
L 260.840614 216.842409 
L 261.49941 215.524817 
L 262.158205 214.207226 
L 262.817001 212.889634 
L 263.475797 211.572043 
L 264.134593 210.254451 
L 264.793388 208.93686 
L 265.452184 207.619268 
L 266.11098 206.301677 
L 266.769776 204.984085 
L 267.428571 203.666494 
L 268.087367 202.348902 
L 268.746163 201.031311 
L 269.404959 199.713719 
L 270.063754 198.396128 
L 270.72255 197.078536 
L 271.381346 195.760945 
L 272.040142 194.443353 
L 272.698937 193.125762 
L 273.357733 191.80817 
L 274.016529 190.490579 
L 274.675325 189.172987 
L 275.33412 187.855396 
L 275.992916 186.537804 
L 276.651712 185.220213 
L 277.310508 183.902621 
L 277.969303 182.58503 
L 278.628099 181.267438 
L 279.286895 179.949847 
L 279.945691 178.632255 
L 280.604486 177.314664 
L 281.263282 175.997072 
L 281.922078 174.679481 
L 282.580874 173.361889 
L 283.239669 172.044298 
L 283.898465 170.726706 
L 284.557261 169.409115 
L 285.216057 168.091523 
L 285.874852 166.773932 
L 286.533648 165.45634 
L 287.192444 164.138749 
L 287.85124 162.821157 
L 288.510035 161.503566 
L 289.168831 160.185974 
L 289.827627 158.868383 
L 290.486423 157.550791 
L 291.145218 156.2332 
L 291.804014 154.915608 
L 292.46281 153.598017 
L 293.121606 152.280425 
L 293.780401 150.962834 
L 294.439197 149.645242 
L 295.097993 148.327651 
L 295.756789 147.010059 
L 296.415584 145.692468 
L 297.07438 144.374876 
L 297.733176 143.057285 
L 298.391972 141.739693 
L 299.050767 140.422102 
L 299.709563 139.10451 
L 300.368359 137.786919 
L 301.027155 136.469327 
L 301.68595 135.151736 
L 302.344746 133.834144 
L 303.003542 132.516553 
L 303.662338 131.198961 
L 304.321133 129.88137 
L 304.979929 128.563778 
L 305.638725 127.246187 
L 306.297521 125.928595 
L 306.956316 124.611004 
L 307.615112 123.293412 
L 308.273908 121.975821 
L 308.932704 120.658229 
L 309.591499 119.340638 
L 310.250295 118.023046 
L 310.909091 116.705455 
L 311.567887 115.387863 
L 312.226682 114.070272 
L 312.885478 112.75268 
L 313.544274 111.435089 
L 314.20307 110.117497 
L 314.861865 108.799906 
L 315.520661 107.482314 
L 316.179457 106.164723 
L 316.838253 104.847131 
L 317.497048 103.52954 
L 318.155844 102.211948 
L 318.81464 100.894357 
L 319.473436 99.576765 
L 320.132231 98.259174 
L 320.791027 96.941582 
L 321.449823 95.623991 
L 322.108619 94.306399 
L 322.767414 92.988808 
L 323.42621 91.671216 
L 324.085006 90.353625 
L 324.743802 89.036033 
L 325.402597 87.718442 
" clip-path="url(#pb2e413f806)" style="fill: none; stroke-dasharray: 5.55,2.4; stroke-dashoffset: 0; stroke: #0000ff; stroke-width: 1.5"/>
   </g>
   <g id="line2d_30">
    <path d="M 260.181818 218.16 
L 260.840614 216.183613 
L 261.49941 214.207226 
L 262.158205 212.230838 
L 262.817001 210.254451 
L 263.475797 208.278064 
L 264.134593 206.301677 
L 264.793388 204.325289 
L 265.452184 202.348902 
L 266.11098 200.372515 
L 266.769776 198.396128 
L 267.428571 196.41974 
L 268.087367 194.443353 
L 268.746163 192.466966 
L 269.404959 190.490579 
L 270.063754 188.514191 
L 270.72255 186.537804 
L 271.381346 184.561417 
L 272.040142 182.58503 
L 272.698937 180.608642 
L 273.357733 178.632255 
L 274.016529 176.655868 
L 274.675325 174.679481 
L 275.33412 172.703093 
L 275.992916 170.726706 
L 276.651712 168.750319 
L 277.310508 166.773932 
L 277.969303 164.797544 
L 278.628099 162.821157 
L 279.286895 160.84477 
L 279.945691 158.868383 
L 280.604486 156.891995 
L 281.263282 154.915608 
L 281.922078 152.939221 
L 282.580874 150.962834 
L 283.239669 148.986446 
L 283.898465 147.010059 
L 284.557261 145.033672 
L 285.216057 143.057285 
L 285.874852 141.080897 
L 286.533648 139.10451 
L 287.192444 137.128123 
L 287.85124 135.151736 
L 288.510035 133.175348 
L 289.168831 131.198961 
L 289.827627 129.222574 
L 290.486423 127.246187 
L 291.145218 125.269799 
L 291.804014 123.293412 
L 292.46281 121.317025 
L 293.121606 119.340638 
L 293.780401 117.36425 
L 294.439197 115.387863 
L 295.097993 113.411476 
L 295.756789 111.435089 
L 296.415584 109.458701 
L 297.07438 107.482314 
L 297.733176 105.505927 
L 298.391972 103.52954 
L 299.050767 101.553152 
L 299.709563 99.576765 
L 300.368359 97.600378 
L 301.027155 95.623991 
L 301.68595 93.647603 
L 302.344746 91.671216 
L 303.003542 89.694829 
L 303.662338 87.718442 
L 304.321133 85.742054 
L 304.979929 83.765667 
L 305.638725 81.78928 
L 306.297521 79.812893 
L 306.956316 77.836505 
L 307.615112 75.860118 
L 308.273908 73.883731 
L 308.932704 71.907344 
L 309.591499 69.930956 
L 310.250295 67.954569 
L 310.909091 65.978182 
L 311.567887 64.001795 
L 312.226682 62.025407 
L 312.885478 60.04902 
L 313.544274 58.072633 
L 314.20307 56.096246 
L 314.861865 54.119858 
L 315.520661 52.143471 
L 316.179457 50.167084 
L 316.838253 48.190697 
L 317.497048 46.214309 
L 318.155844 44.237922 
L 318.81464 42.261535 
L 319.473436 40.285148 
L 320.132231 38.30876 
L 320.791027 36.332373 
L 321.449823 34.355986 
L 322.108619 32.379599 
L 322.767414 30.403211 
L 323.42621 28.426824 
L 324.085006 26.450437 
L 324.743802 24.47405 
L 325.402597 22.497662 
" clip-path="url(#pb2e413f806)" style="fill: none; stroke-dasharray: 5.55,2.4; stroke-dashoffset: 0; stroke: #008000; stroke-width: 1.5"/>
   </g>
   <g id="patch_3">
    <path d="M 108 370.341818 
L 108 65.978182 
" style="fill: none; stroke: #000000; stroke-width: 0.8; stroke-linejoin: miter; stroke-linecap: square"/>
   </g>
   <g id="patch_4">
    <path d="M 412.363636 370.341818 
L 412.363636 65.978182 
" style="fill: none; stroke: #000000; stroke-width: 0.8; stroke-linejoin: miter; stroke-linecap: square"/>
   </g>
   <g id="patch_5">
    <path d="M 108 370.341818 
L 412.363636 370.341818 
" style="fill: none; stroke: #000000; stroke-width: 0.8; stroke-linejoin: miter; stroke-linecap: square"/>
   </g>
   <g id="patch_6">
    <path d="M 108 65.978182 
L 412.363636 65.978182 
" style="fill: none; stroke: #000000; stroke-width: 0.8; stroke-linejoin: miter; stroke-linecap: square"/>
   </g>
   <g id="text_15">
    <!-- До преобразования -->
    <g transform="translate(198.129631 59.978182) scale(0.12 -0.12)">
     <defs>
      <path id="DejaVuSans-414" d="M 1459 531 
L 3522 531 
L 3522 4134 
L 2006 4134 
L 2006 3472 
Q 2006 1913 1656 878 
Q 1584 666 1459 531 
z
M 538 531 
Q 956 728 1075 1103 
Q 1378 2066 1378 3784 
L 1378 4666 
L 4153 4666 
L 4153 531 
L 4684 531 
L 4684 -1003 
L 4153 -1003 
L 4153 0 
L 847 0 
L 847 -1003 
L 316 -1003 
L 316 531 
L 538 531 
z
" transform="scale(0.015625)"/>
      <path id="DejaVuSans-43e" d="M 1959 3097 
Q 1497 3097 1228 2736 
Q 959 2375 959 1747 
Q 959 1119 1226 758 
Q 1494 397 1959 397 
Q 2419 397 2687 759 
Q 2956 1122 2956 1747 
Q 2956 2369 2687 2733 
Q 2419 3097 1959 3097 
z
M 1959 3584 
Q 2709 3584 3137 3096 
Q 3566 2609 3566 1747 
Q 3566 888 3137 398 
Q 2709 -91 1959 -91 
Q 1206 -91 779 398 
Q 353 888 353 1747 
Q 353 2609 779 3096 
Q 1206 3584 1959 3584 
z
" transform="scale(0.015625)"/>
      <path id="DejaVuSans-20" transform="scale(0.015625)"/>
      <path id="DejaVuSans-43f" d="M 3603 3500 
L 3603 0 
L 3025 0 
L 3025 3041 
L 1159 3041 
L 1159 0 
L 581 0 
L 581 3500 
L 3603 3500 
z
" transform="scale(0.015625)"/>
      <path id="DejaVuSans-440" d="M 1159 525 
L 1159 -1331 
L 581 -1331 
L 581 3500 
L 1159 3500 
L 1159 2969 
Q 1341 3281 1617 3432 
Q 1894 3584 2278 3584 
Q 2916 3584 3314 3078 
Q 3713 2572 3713 1747 
Q 3713 922 3314 415 
Q 2916 -91 2278 -91 
Q 1894 -91 1617 61 
Q 1341 213 1159 525 
z
M 3116 1747 
Q 3116 2381 2855 2742 
Q 2594 3103 2138 3103 
Q 1681 3103 1420 2742 
Q 1159 2381 1159 1747 
Q 1159 1113 1420 752 
Q 1681 391 2138 391 
Q 2594 391 2855 752 
Q 3116 1113 3116 1747 
z
" transform="scale(0.015625)"/>
      <path id="DejaVuSans-435" d="M 3597 1894 
L 3597 1613 
L 953 1613 
Q 991 1019 1311 708 
Q 1631 397 2203 397 
Q 2534 397 2845 478 
Q 3156 559 3463 722 
L 3463 178 
Q 3153 47 2828 -22 
Q 2503 -91 2169 -91 
Q 1331 -91 842 396 
Q 353 884 353 1716 
Q 353 2575 817 3079 
Q 1281 3584 2069 3584 
Q 2775 3584 3186 3129 
Q 3597 2675 3597 1894 
z
M 3022 2063 
Q 3016 2534 2758 2815 
Q 2500 3097 2075 3097 
Q 1594 3097 1305 2825 
Q 1016 2553 972 2059 
L 3022 2063 
z
" transform="scale(0.015625)"/>
      <path id="DejaVuSans-431" d="M 1991 3584 
Q 2741 3584 3169 3096 
Q 3597 2609 3597 1747 
Q 3597 888 3169 398 
Q 2741 -91 1991 -91 
Q 1238 -91 822 384 
Q 406 859 384 1747 
L 366 2463 
Q 350 2834 350 2963 
Q 350 3463 531 3831 
Q 816 4409 1308 4659 
Q 1800 4909 2625 4916 
Q 3006 4919 3175 4972 
L 3334 4516 
Q 3181 4453 3041 4450 
L 2259 4397 
Q 1866 4369 1628 4231 
Q 1006 3866 947 3388 
L 925 3213 
Q 1331 3584 1991 3584 
z
M 1991 3097 
Q 1528 3097 1259 2736 
Q 991 2375 991 1747 
Q 991 1119 1258 758 
Q 1525 397 1991 397 
Q 2450 397 2719 759 
Q 2988 1122 2988 1747 
Q 2988 2369 2719 2733 
Q 2450 3097 1991 3097 
z
" transform="scale(0.015625)"/>
      <path id="DejaVuSans-430" d="M 2194 1759 
Q 1497 1759 1228 1600 
Q 959 1441 959 1056 
Q 959 750 1161 570 
Q 1363 391 1709 391 
Q 2188 391 2477 730 
Q 2766 1069 2766 1631 
L 2766 1759 
L 2194 1759 
z
M 3341 1997 
L 3341 0 
L 2766 0 
L 2766 531 
Q 2569 213 2275 61 
Q 1981 -91 1556 -91 
Q 1019 -91 701 211 
Q 384 513 384 1019 
Q 384 1609 779 1909 
Q 1175 2209 1959 2209 
L 2766 2209 
L 2766 2266 
Q 2766 2663 2505 2880 
Q 2244 3097 1772 3097 
Q 1472 3097 1187 3025 
Q 903 2953 641 2809 
L 641 3341 
Q 956 3463 1253 3523 
Q 1550 3584 1831 3584 
Q 2591 3584 2966 3190 
Q 3341 2797 3341 1997 
z
" transform="scale(0.015625)"/>
      <path id="DejaVuSans-437" d="M 2206 1888 
Q 2594 1813 2809 1584 
Q 3025 1356 3025 1019 
Q 3025 478 2622 193 
Q 2219 -91 1475 -91 
Q 1225 -91 961 -47 
Q 697 -3 416 84 
L 416 619 
Q 638 503 903 445 
Q 1169 388 1459 388 
Q 1931 388 2195 563 
Q 2459 738 2459 1019 
Q 2459 1294 2225 1461 
Q 1991 1628 1563 1628 
L 1100 1628 
L 1100 2103 
L 1584 2103 
Q 1947 2103 2158 2242 
Q 2369 2381 2369 2600 
Q 2369 2800 2151 2944 
Q 1934 3088 1563 3088 
Q 1341 3088 1089 3047 
Q 838 3006 534 2916 
L 534 3438 
Q 841 3513 1106 3550 
Q 1372 3588 1609 3588 
Q 2222 3588 2576 3342 
Q 2931 3097 2931 2656 
Q 2931 2366 2743 2164 
Q 2556 1963 2206 1888 
z
" transform="scale(0.015625)"/>
      <path id="DejaVuSans-432" d="M 1156 1613 
L 1156 459 
L 1975 459 
Q 2369 459 2575 607 
Q 2781 756 2781 1038 
Q 2781 1319 2575 1466 
Q 2369 1613 1975 1613 
L 1156 1613 
z
M 1156 3041 
L 1156 2072 
L 1913 2072 
Q 2238 2072 2444 2201 
Q 2650 2331 2650 2563 
Q 2650 2794 2444 2917 
Q 2238 3041 1913 3041 
L 1156 3041 
z
M 581 3500 
L 1950 3500 
Q 2566 3500 2897 3275 
Q 3228 3050 3228 2634 
Q 3228 2313 3059 2123 
Q 2891 1934 2559 1888 
Q 2956 1813 3175 1575 
Q 3394 1338 3394 981 
Q 3394 513 3033 256 
Q 2672 0 2003 0 
L 581 0 
L 581 3500 
z
" transform="scale(0.015625)"/>
      <path id="DejaVuSans-43d" d="M 581 3500 
L 1159 3500 
L 1159 2072 
L 3025 2072 
L 3025 3500 
L 3603 3500 
L 3603 0 
L 3025 0 
L 3025 1613 
L 1159 1613 
L 1159 0 
L 581 0 
L 581 3500 
z
" transform="scale(0.015625)"/>
      <path id="DejaVuSans-438" d="M 3578 3500 
L 3578 0 
L 3006 0 
L 3006 2809 
L 1319 0 
L 581 0 
L 581 3500 
L 1153 3500 
L 1153 697 
L 2838 3500 
L 3578 3500 
z
" transform="scale(0.015625)"/>
      <path id="DejaVuSans-44f" d="M 1181 2491 
Q 1181 2231 1381 2084 
Q 1581 1938 1953 1938 
L 2728 1938 
L 2728 3041 
L 1953 3041 
Q 1581 3041 1381 2897 
Q 1181 2753 1181 2491 
z
M 363 0 
L 1431 1534 
Q 1069 1616 828 1830 
Q 588 2044 588 2491 
Q 588 2997 923 3248 
Q 1259 3500 1938 3500 
L 3306 3500 
L 3306 0 
L 2728 0 
L 2728 1478 
L 2013 1478 
L 981 0 
L 363 0 
z
" transform="scale(0.015625)"/>
     </defs>
     <use xlink:href="#DejaVuSans-414"/>
     <use xlink:href="#DejaVuSans-43e" transform="translate(78.125 0)"/>
     <use xlink:href="#DejaVuSans-20" transform="translate(139.306641 0)"/>
     <use xlink:href="#DejaVuSans-43f" transform="translate(171.09375 0)"/>
     <use xlink:href="#DejaVuSans-440" transform="translate(236.474609 0)"/>
     <use xlink:href="#DejaVuSans-435" transform="translate(299.951172 0)"/>
     <use xlink:href="#DejaVuSans-43e" transform="translate(361.474609 0)"/>
     <use xlink:href="#DejaVuSans-431" transform="translate(422.65625 0)"/>
     <use xlink:href="#DejaVuSans-440" transform="translate(484.326172 0)"/>
     <use xlink:href="#DejaVuSans-430" transform="translate(547.802734 0)"/>
     <use xlink:href="#DejaVuSans-437" transform="translate(609.082031 0)"/>
     <use xlink:href="#DejaVuSans-43e" transform="translate(662.255859 0)"/>
     <use xlink:href="#DejaVuSans-432" transform="translate(723.4375 0)"/>
     <use xlink:href="#DejaVuSans-430" transform="translate(782.373047 0)"/>
     <use xlink:href="#DejaVuSans-43d" transform="translate(843.652344 0)"/>
     <use xlink:href="#DejaVuSans-438" transform="translate(909.033203 0)"/>
     <use xlink:href="#DejaVuSans-44f" transform="translate(974.023438 0)"/>
    </g>
   </g>
   <g id="legend_1">
    <g id="patch_7">
     <path d="M 346.783949 103.334432 
L 405.363636 103.334432 
Q 407.363636 103.334432 407.363636 101.334432 
L 407.363636 72.978182 
Q 407.363636 70.978182 405.363636 70.978182 
L 346.783949 70.978182 
Q 344.783949 70.978182 344.783949 72.978182 
L 344.783949 101.334432 
Q 344.783949 103.334432 346.783949 103.334432 
z
" style="fill: #ffffff; opacity: 0.8; stroke: #cccccc; stroke-linejoin: miter"/>
    </g>
    <g id="line2d_31">
     <path d="M 348.783949 79.076619 
L 358.783949 79.076619 
L 368.783949 79.076619 
" style="fill: none; stroke-dasharray: 5.55,2.4; stroke-dashoffset: 0; stroke: #0000ff; stroke-width: 1.5"/>
    </g>
    <g id="text_16">
     <!-- y=2x -->
     <g transform="translate(376.783949 82.576619) scale(0.1 -0.1)">
      <defs>
       <path id="DejaVuSans-79" d="M 2059 -325 
Q 1816 -950 1584 -1140 
Q 1353 -1331 966 -1331 
L 506 -1331 
L 506 -850 
L 844 -850 
Q 1081 -850 1212 -737 
Q 1344 -625 1503 -206 
L 1606 56 
L 191 3500 
L 800 3500 
L 1894 763 
L 2988 3500 
L 3597 3500 
L 2059 -325 
z
" transform="scale(0.015625)"/>
       <path id="DejaVuSans-3d" d="M 678 2906 
L 4684 2906 
L 4684 2381 
L 678 2381 
L 678 2906 
z
M 678 1631 
L 4684 1631 
L 4684 1100 
L 678 1100 
L 678 1631 
z
" transform="scale(0.015625)"/>
       <path id="DejaVuSans-78" d="M 3513 3500 
L 2247 1797 
L 3578 0 
L 2900 0 
L 1881 1375 
L 863 0 
L 184 0 
L 1544 1831 
L 300 3500 
L 978 3500 
L 1906 2253 
L 2834 3500 
L 3513 3500 
z
" transform="scale(0.015625)"/>
      </defs>
      <use xlink:href="#DejaVuSans-79"/>
      <use xlink:href="#DejaVuSans-3d" transform="translate(59.179688 0)"/>
      <use xlink:href="#DejaVuSans-32" transform="translate(142.96875 0)"/>
      <use xlink:href="#DejaVuSans-78" transform="translate(206.591797 0)"/>
     </g>
    </g>
    <g id="line2d_32">
     <path d="M 348.783949 93.754744 
L 358.783949 93.754744 
L 368.783949 93.754744 
" style="fill: none; stroke-dasharray: 5.55,2.4; stroke-dashoffset: 0; stroke: #008000; stroke-width: 1.5"/>
    </g>
    <g id="text_17">
     <!-- y=3x -->
     <g transform="translate(376.783949 97.254744) scale(0.1 -0.1)">
      <defs>
       <path id="DejaVuSans-33" d="M 2597 2516 
Q 3050 2419 3304 2112 
Q 3559 1806 3559 1356 
Q 3559 666 3084 287 
Q 2609 -91 1734 -91 
Q 1441 -91 1130 -33 
Q 819 25 488 141 
L 488 750 
Q 750 597 1062 519 
Q 1375 441 1716 441 
Q 2309 441 2620 675 
Q 2931 909 2931 1356 
Q 2931 1769 2642 2001 
Q 2353 2234 1838 2234 
L 1294 2234 
L 1294 2753 
L 1863 2753 
Q 2328 2753 2575 2939 
Q 2822 3125 2822 3475 
Q 2822 3834 2567 4026 
Q 2313 4219 1838 4219 
Q 1578 4219 1281 4162 
Q 984 4106 628 3988 
L 628 4550 
Q 988 4650 1302 4700 
Q 1616 4750 1894 4750 
Q 2613 4750 3031 4423 
Q 3450 4097 3450 3541 
Q 3450 3153 3228 2886 
Q 3006 2619 2597 2516 
z
" transform="scale(0.015625)"/>
      </defs>
      <use xlink:href="#DejaVuSans-79"/>
      <use xlink:href="#DejaVuSans-3d" transform="translate(59.179688 0)"/>
      <use xlink:href="#DejaVuSans-33" transform="translate(142.96875 0)"/>
      <use xlink:href="#DejaVuSans-78" transform="translate(206.591797 0)"/>
     </g>
    </g>
   </g>
  </g>
  <g id="axes_2">
   <g id="patch_8">
    <path d="M 473.236364 370.341818 
L 777.6 370.341818 
L 777.6 65.978182 
L 473.236364 65.978182 
z
" style="fill: #ffffff"/>
   </g>
   <g id="PathCollection_2">
    <defs>
     <path id="C1_0_018b0f3081" d="M 0 3 
C 0.795609 3 1.55874 2.683901 2.12132 2.12132 
C 2.683901 1.55874 3 0.795609 3 -0 
C 3 -0.795609 2.683901 -1.55874 2.12132 -2.12132 
C 1.55874 -2.683901 0.795609 -3 0 -3 
C -0.795609 -3 -1.55874 -2.683901 -2.12132 -2.12132 
C -2.683901 -1.55874 -3 -0.795609 -3 0 
C -3 0.795609 -2.683901 1.55874 -2.12132 2.12132 
C -1.55874 2.683901 -0.795609 3 0 3 
z
"/>
    </defs>
    <g clip-path="url(#pa319d1335e)">
     <use xlink:href="#C1_0_018b0f3081" x="594.672812" y="125.923889" style="fill: #ff0000; stroke: #ff0000"/>
    </g>
    <g clip-path="url(#pa319d1335e)">
     <use xlink:href="#C1_0_018b0f3081" x="502.436701" y="156.66926" style="fill: #fcf500; stroke: #fcf500"/>
    </g>
    <g clip-path="url(#pa319d1335e)">
     <use xlink:href="#C1_0_018b0f3081" x="533.182071" y="310.396111" style="fill: #08ff00; stroke: #08ff00"/>
    </g>
    <g clip-path="url(#pa319d1335e)">
     <use xlink:href="#C1_0_018b0f3081" x="625.418182" y="341.141481" style="fill: #00fff6; stroke: #00fff6"/>
    </g>
    <g clip-path="url(#pa319d1335e)">
     <use xlink:href="#C1_0_018b0f3081" x="779.145033" y="187.41463" style="fill: #0010ff; stroke: #0010ff"/>
    </g>
    <g clip-path="url(#pa319d1335e)">
     <use xlink:href="#C1_0_018b0f3081" x="686.908922" y="156.66926" style="fill: #ee00ff; stroke: #ee00ff"/>
    </g>
   </g>
   <g id="matplotlib.axis_3">
    <g id="xtick_8">
     <g id="line2d_33">
      <path d="M 494.976623 370.341818 
L 494.976623 65.978182 
" clip-path="url(#pa319d1335e)" style="fill: none; stroke: #b0b0b0; stroke-width: 0.8; stroke-linecap: square"/>
     </g>
     <g id="line2d_34">
      <g>
       <use xlink:href="#maed11afde9" x="494.976623" y="370.341818" style="stroke: #000000; stroke-width: 0.8"/>
      </g>
     </g>
     <g id="text_18">
      <!-- −6 -->
      <g transform="translate(487.60553 384.940256) scale(0.1 -0.1)">
       <use xlink:href="#DejaVuSans-2212"/>
       <use xlink:href="#DejaVuSans-36" transform="translate(83.789062 0)"/>
      </g>
     </g>
    </g>
    <g id="xtick_9">
     <g id="line2d_35">
      <path d="M 538.457143 370.341818 
L 538.457143 65.978182 
" clip-path="url(#pa319d1335e)" style="fill: none; stroke: #b0b0b0; stroke-width: 0.8; stroke-linecap: square"/>
     </g>
     <g id="line2d_36">
      <g>
       <use xlink:href="#maed11afde9" x="538.457143" y="370.341818" style="stroke: #000000; stroke-width: 0.8"/>
      </g>
     </g>
     <g id="text_19">
      <!-- −4 -->
      <g transform="translate(531.086049 384.940256) scale(0.1 -0.1)">
       <use xlink:href="#DejaVuSans-2212"/>
       <use xlink:href="#DejaVuSans-34" transform="translate(83.789062 0)"/>
      </g>
     </g>
    </g>
    <g id="xtick_10">
     <g id="line2d_37">
      <path d="M 581.937662 370.341818 
L 581.937662 65.978182 
" clip-path="url(#pa319d1335e)" style="fill: none; stroke: #b0b0b0; stroke-width: 0.8; stroke-linecap: square"/>
     </g>
     <g id="line2d_38">
      <g>
       <use xlink:href="#maed11afde9" x="581.937662" y="370.341818" style="stroke: #000000; stroke-width: 0.8"/>
      </g>
     </g>
     <g id="text_20">
      <!-- −2 -->
      <g transform="translate(574.566569 384.940256) scale(0.1 -0.1)">
       <use xlink:href="#DejaVuSans-2212"/>
       <use xlink:href="#DejaVuSans-32" transform="translate(83.789062 0)"/>
      </g>
     </g>
    </g>
    <g id="xtick_11">
     <g id="line2d_39">
      <path d="M 625.418182 370.341818 
L 625.418182 65.978182 
" clip-path="url(#pa319d1335e)" style="fill: none; stroke: #b0b0b0; stroke-width: 0.8; stroke-linecap: square"/>
     </g>
     <g id="line2d_40">
      <g>
       <use xlink:href="#maed11afde9" x="625.418182" y="370.341818" style="stroke: #000000; stroke-width: 0.8"/>
      </g>
     </g>
     <g id="text_21">
      <!-- 0 -->
      <g transform="translate(622.236932 384.940256) scale(0.1 -0.1)">
       <use xlink:href="#DejaVuSans-30"/>
      </g>
     </g>
    </g>
    <g id="xtick_12">
     <g id="line2d_41">
      <path d="M 668.898701 370.341818 
L 668.898701 65.978182 
" clip-path="url(#pa319d1335e)" style="fill: none; stroke: #b0b0b0; stroke-width: 0.8; stroke-linecap: square"/>
     </g>
     <g id="line2d_42">
      <g>
       <use xlink:href="#maed11afde9" x="668.898701" y="370.341818" style="stroke: #000000; stroke-width: 0.8"/>
      </g>
     </g>
     <g id="text_22">
      <!-- 2 -->
      <g transform="translate(665.717451 384.940256) scale(0.1 -0.1)">
       <use xlink:href="#DejaVuSans-32"/>
      </g>
     </g>
    </g>
    <g id="xtick_13">
     <g id="line2d_43">
      <path d="M 712.379221 370.341818 
L 712.379221 65.978182 
" clip-path="url(#pa319d1335e)" style="fill: none; stroke: #b0b0b0; stroke-width: 0.8; stroke-linecap: square"/>
     </g>
     <g id="line2d_44">
      <g>
       <use xlink:href="#maed11afde9" x="712.379221" y="370.341818" style="stroke: #000000; stroke-width: 0.8"/>
      </g>
     </g>
     <g id="text_23">
      <!-- 4 -->
      <g transform="translate(709.197971 384.940256) scale(0.1 -0.1)">
       <use xlink:href="#DejaVuSans-34"/>
      </g>
     </g>
    </g>
    <g id="xtick_14">
     <g id="line2d_45">
      <path d="M 755.85974 370.341818 
L 755.85974 65.978182 
" clip-path="url(#pa319d1335e)" style="fill: none; stroke: #b0b0b0; stroke-width: 0.8; stroke-linecap: square"/>
     </g>
     <g id="line2d_46">
      <g>
       <use xlink:href="#maed11afde9" x="755.85974" y="370.341818" style="stroke: #000000; stroke-width: 0.8"/>
      </g>
     </g>
     <g id="text_24">
      <!-- 6 -->
      <g transform="translate(752.67849 384.940256) scale(0.1 -0.1)">
       <use xlink:href="#DejaVuSans-36"/>
      </g>
     </g>
    </g>
   </g>
   <g id="matplotlib.axis_4">
    <g id="ytick_8">
     <g id="line2d_47">
      <path d="M 473.236364 348.601558 
L 777.6 348.601558 
" clip-path="url(#pa319d1335e)" style="fill: none; stroke: #b0b0b0; stroke-width: 0.8; stroke-linecap: square"/>
     </g>
     <g id="line2d_48">
      <g>
       <use xlink:href="#m2fec36f5c7" x="473.236364" y="348.601558" style="stroke: #000000; stroke-width: 0.8"/>
      </g>
     </g>
     <g id="text_25">
      <!-- −6 -->
      <g transform="translate(451.494176 352.400777) scale(0.1 -0.1)">
       <use xlink:href="#DejaVuSans-2212"/>
       <use xlink:href="#DejaVuSans-36" transform="translate(83.789062 0)"/>
      </g>
     </g>
    </g>
    <g id="ytick_9">
     <g id="line2d_49">
      <path d="M 473.236364 305.121039 
L 777.6 305.121039 
" clip-path="url(#pa319d1335e)" style="fill: none; stroke: #b0b0b0; stroke-width: 0.8; stroke-linecap: square"/>
     </g>
     <g id="line2d_50">
      <g>
       <use xlink:href="#m2fec36f5c7" x="473.236364" y="305.121039" style="stroke: #000000; stroke-width: 0.8"/>
      </g>
     </g>
     <g id="text_26">
      <!-- −4 -->
      <g transform="translate(451.494176 308.920258) scale(0.1 -0.1)">
       <use xlink:href="#DejaVuSans-2212"/>
       <use xlink:href="#DejaVuSans-34" transform="translate(83.789062 0)"/>
      </g>
     </g>
    </g>
    <g id="ytick_10">
     <g id="line2d_51">
      <path d="M 473.236364 261.640519 
L 777.6 261.640519 
" clip-path="url(#pa319d1335e)" style="fill: none; stroke: #b0b0b0; stroke-width: 0.8; stroke-linecap: square"/>
     </g>
     <g id="line2d_52">
      <g>
       <use xlink:href="#m2fec36f5c7" x="473.236364" y="261.640519" style="stroke: #000000; stroke-width: 0.8"/>
      </g>
     </g>
     <g id="text_27">
      <!-- −2 -->
      <g transform="translate(451.494176 265.439738) scale(0.1 -0.1)">
       <use xlink:href="#DejaVuSans-2212"/>
       <use xlink:href="#DejaVuSans-32" transform="translate(83.789062 0)"/>
      </g>
     </g>
    </g>
    <g id="ytick_11">
     <g id="line2d_53">
      <path d="M 473.236364 218.16 
L 777.6 218.16 
" clip-path="url(#pa319d1335e)" style="fill: none; stroke: #b0b0b0; stroke-width: 0.8; stroke-linecap: square"/>
     </g>
     <g id="line2d_54">
      <g>
       <use xlink:href="#m2fec36f5c7" x="473.236364" y="218.16" style="stroke: #000000; stroke-width: 0.8"/>
      </g>
     </g>
     <g id="text_28">
      <!-- 0 -->
      <g transform="translate(459.873864 221.959219) scale(0.1 -0.1)">
       <use xlink:href="#DejaVuSans-30"/>
      </g>
     </g>
    </g>
    <g id="ytick_12">
     <g id="line2d_55">
      <path d="M 473.236364 174.679481 
L 777.6 174.679481 
" clip-path="url(#pa319d1335e)" style="fill: none; stroke: #b0b0b0; stroke-width: 0.8; stroke-linecap: square"/>
     </g>
     <g id="line2d_56">
      <g>
       <use xlink:href="#m2fec36f5c7" x="473.236364" y="174.679481" style="stroke: #000000; stroke-width: 0.8"/>
      </g>
     </g>
     <g id="text_29">
      <!-- 2 -->
      <g transform="translate(459.873864 178.478699) scale(0.1 -0.1)">
       <use xlink:href="#DejaVuSans-32"/>
      </g>
     </g>
    </g>
    <g id="ytick_13">
     <g id="line2d_57">
      <path d="M 473.236364 131.198961 
L 777.6 131.198961 
" clip-path="url(#pa319d1335e)" style="fill: none; stroke: #b0b0b0; stroke-width: 0.8; stroke-linecap: square"/>
     </g>
     <g id="line2d_58">
      <g>
       <use xlink:href="#m2fec36f5c7" x="473.236364" y="131.198961" style="stroke: #000000; stroke-width: 0.8"/>
      </g>
     </g>
     <g id="text_30">
      <!-- 4 -->
      <g transform="translate(459.873864 134.99818) scale(0.1 -0.1)">
       <use xlink:href="#DejaVuSans-34"/>
      </g>
     </g>
    </g>
    <g id="ytick_14">
     <g id="line2d_59">
      <path d="M 473.236364 87.718442 
L 777.6 87.718442 
" clip-path="url(#pa319d1335e)" style="fill: none; stroke: #b0b0b0; stroke-width: 0.8; stroke-linecap: square"/>
     </g>
     <g id="line2d_60">
      <g>
       <use xlink:href="#m2fec36f5c7" x="473.236364" y="87.718442" style="stroke: #000000; stroke-width: 0.8"/>
      </g>
     </g>
     <g id="text_31">
      <!-- 6 -->
      <g transform="translate(459.873864 91.51766) scale(0.1 -0.1)">
       <use xlink:href="#DejaVuSans-36"/>
      </g>
     </g>
    </g>
   </g>
   <g id="line2d_61">
    <path d="M 625.418182 218.16 
L 626.076978 216.842409 
L 626.735773 215.524817 
L 627.394569 214.207226 
L 628.053365 212.889634 
L 628.712161 211.572043 
L 629.370956 210.254451 
L 630.029752 208.93686 
L 630.688548 207.619268 
L 631.347344 206.301677 
L 632.006139 204.984085 
L 632.664935 203.666494 
L 633.323731 202.348902 
L 633.982527 201.031311 
L 634.641322 199.713719 
L 635.300118 198.396128 
L 635.958914 197.078536 
L 636.61771 195.760945 
L 637.276505 194.443353 
L 637.935301 193.125762 
L 638.594097 191.80817 
L 639.252893 190.490579 
L 639.911688 189.172987 
L 640.570484 187.855396 
L 641.22928 186.537804 
L 641.888076 185.220213 
L 642.546871 183.902621 
L 643.205667 182.58503 
L 643.864463 181.267438 
L 644.523259 179.949847 
L 645.182054 178.632255 
L 645.84085 177.314664 
L 646.499646 175.997072 
L 647.158442 174.679481 
L 647.817237 173.361889 
L 648.476033 172.044298 
L 649.134829 170.726706 
L 649.793625 169.409115 
L 650.45242 168.091523 
L 651.111216 166.773932 
L 651.770012 165.45634 
L 652.428808 164.138749 
L 653.087603 162.821157 
L 653.746399 161.503566 
L 654.405195 160.185974 
L 655.063991 158.868383 
L 655.722786 157.550791 
L 656.381582 156.2332 
L 657.040378 154.915608 
L 657.699174 153.598017 
L 658.357969 152.280425 
L 659.016765 150.962834 
L 659.675561 149.645242 
L 660.334357 148.327651 
L 660.993152 147.010059 
L 661.651948 145.692468 
L 662.310744 144.374876 
L 662.96954 143.057285 
L 663.628335 141.739693 
L 664.287131 140.422102 
L 664.945927 139.10451 
L 665.604723 137.786919 
L 666.263518 136.469327 
L 666.922314 135.151736 
L 667.58111 133.834144 
L 668.239906 132.516553 
L 668.898701 131.198961 
L 669.557497 129.88137 
L 670.216293 128.563778 
L 670.875089 127.246187 
L 671.533884 125.928595 
L 672.19268 124.611004 
L 672.851476 123.293412 
L 673.510272 121.975821 
L 674.169067 120.658229 
L 674.827863 119.340638 
L 675.486659 118.023046 
L 676.145455 116.705455 
L 676.80425 115.387863 
L 677.463046 114.070272 
L 678.121842 112.75268 
L 678.780638 111.435089 
L 679.439433 110.117497 
L 680.098229 108.799906 
L 680.757025 107.482314 
L 681.415821 106.164723 
L 682.074616 104.847131 
L 682.733412 103.52954 
L 683.392208 102.211948 
L 684.051004 100.894357 
L 684.709799 99.576765 
L 685.368595 98.259174 
L 686.027391 96.941582 
L 686.686187 95.623991 
L 687.344982 94.306399 
L 688.003778 92.988808 
L 688.662574 91.671216 
L 689.32137 90.353625 
L 689.980165 89.036033 
L 690.638961 87.718442 
" clip-path="url(#pa319d1335e)" style="fill: none; stroke-dasharray: 5.55,2.4; stroke-dashoffset: 0; stroke: #008000; stroke-width: 1.5"/>
   </g>
   <g id="line2d_62">
    <path d="M 625.418182 218.16 
L 626.076978 216.183613 
L 626.735773 214.207226 
L 627.394569 212.230838 
L 628.053365 210.254451 
L 628.712161 208.278064 
L 629.370956 206.301677 
L 630.029752 204.325289 
L 630.688548 202.348902 
L 631.347344 200.372515 
L 632.006139 198.396128 
L 632.664935 196.41974 
L 633.323731 194.443353 
L 633.982527 192.466966 
L 634.641322 190.490579 
L 635.300118 188.514191 
L 635.958914 186.537804 
L 636.61771 184.561417 
L 637.276505 182.58503 
L 637.935301 180.608642 
L 638.594097 178.632255 
L 639.252893 176.655868 
L 639.911688 174.679481 
L 640.570484 172.703093 
L 641.22928 170.726706 
L 641.888076 168.750319 
L 642.546871 166.773932 
L 643.205667 164.797544 
L 643.864463 162.821157 
L 644.523259 160.84477 
L 645.182054 158.868383 
L 645.84085 156.891995 
L 646.499646 154.915608 
L 647.158442 152.939221 
L 647.817237 150.962834 
L 648.476033 148.986446 
L 649.134829 147.010059 
L 649.793625 145.033672 
L 650.45242 143.057285 
L 651.111216 141.080897 
L 651.770012 139.10451 
L 652.428808 137.128123 
L 653.087603 135.151736 
L 653.746399 133.175348 
L 654.405195 131.198961 
L 655.063991 129.222574 
L 655.722786 127.246187 
L 656.381582 125.269799 
L 657.040378 123.293412 
L 657.699174 121.317025 
L 658.357969 119.340638 
L 659.016765 117.36425 
L 659.675561 115.387863 
L 660.334357 113.411476 
L 660.993152 111.435089 
L 661.651948 109.458701 
L 662.310744 107.482314 
L 662.96954 105.505927 
L 663.628335 103.52954 
L 664.287131 101.553152 
L 664.945927 99.576765 
L 665.604723 97.600378 
L 666.263518 95.623991 
L 666.922314 93.647603 
L 667.58111 91.671216 
L 668.239906 89.694829 
L 668.898701 87.718442 
L 669.557497 85.742054 
L 670.216293 83.765667 
L 670.875089 81.78928 
L 671.533884 79.812893 
L 672.19268 77.836505 
L 672.851476 75.860118 
L 673.510272 73.883731 
L 674.169067 71.907344 
L 674.827863 69.930956 
L 675.486659 67.954569 
L 676.145455 65.978182 
L 676.80425 64.001795 
L 677.463046 62.025407 
L 678.121842 60.04902 
L 678.780638 58.072633 
L 679.439433 56.096246 
L 680.098229 54.119858 
L 680.757025 52.143471 
L 681.415821 50.167084 
L 682.074616 48.190697 
L 682.733412 46.214309 
L 683.392208 44.237922 
L 684.051004 42.261535 
L 684.709799 40.285148 
L 685.368595 38.30876 
L 686.027391 36.332373 
L 686.686187 34.355986 
L 687.344982 32.379599 
L 688.003778 30.403211 
L 688.662574 28.426824 
L 689.32137 26.450437 
L 689.980165 24.47405 
L 690.638961 22.497662 
" clip-path="url(#pa319d1335e)" style="fill: none; stroke-dasharray: 5.55,2.4; stroke-dashoffset: 0; stroke: #0000ff; stroke-width: 1.5"/>
   </g>
   <g id="patch_9">
    <path d="M 473.236364 370.341818 
L 473.236364 65.978182 
" style="fill: none; stroke: #000000; stroke-width: 0.8; stroke-linejoin: miter; stroke-linecap: square"/>
   </g>
   <g id="patch_10">
    <path d="M 777.6 370.341818 
L 777.6 65.978182 
" style="fill: none; stroke: #000000; stroke-width: 0.8; stroke-linejoin: miter; stroke-linecap: square"/>
   </g>
   <g id="patch_11">
    <path d="M 473.236364 370.341818 
L 777.6 370.341818 
" style="fill: none; stroke: #000000; stroke-width: 0.8; stroke-linejoin: miter; stroke-linecap: square"/>
   </g>
   <g id="patch_12">
    <path d="M 473.236364 65.978182 
L 777.6 65.978182 
" style="fill: none; stroke: #000000; stroke-width: 0.8; stroke-linejoin: miter; stroke-linecap: square"/>
   </g>
   <g id="text_32">
    <!-- После преобразования -->
    <g transform="translate(552.715057 59.978182) scale(0.12 -0.12)">
     <defs>
      <path id="DejaVuSans-41f" d="M 4184 4666 
L 4184 0 
L 3553 0 
L 3553 4134 
L 1259 4134 
L 1259 0 
L 628 0 
L 628 4666 
L 4184 4666 
z
" transform="scale(0.015625)"/>
      <path id="DejaVuSans-441" d="M 3122 3366 
L 3122 2828 
Q 2878 2963 2633 3030 
Q 2388 3097 2138 3097 
Q 1578 3097 1268 2742 
Q 959 2388 959 1747 
Q 959 1106 1268 751 
Q 1578 397 2138 397 
Q 2388 397 2633 464 
Q 2878 531 3122 666 
L 3122 134 
Q 2881 22 2623 -34 
Q 2366 -91 2075 -91 
Q 1284 -91 818 406 
Q 353 903 353 1747 
Q 353 2603 823 3093 
Q 1294 3584 2113 3584 
Q 2378 3584 2631 3529 
Q 2884 3475 3122 3366 
z
" transform="scale(0.015625)"/>
      <path id="DejaVuSans-43b" d="M 238 0 
L 238 478 
Q 806 566 981 959 
Q 1194 1513 1194 2928 
L 1194 3500 
L 3559 3500 
L 3559 0 
L 2984 0 
L 2984 3041 
L 1769 3041 
L 1769 2694 
Q 1769 1344 1494 738 
Q 1200 91 238 0 
z
" transform="scale(0.015625)"/>
     </defs>
     <use xlink:href="#DejaVuSans-41f"/>
     <use xlink:href="#DejaVuSans-43e" transform="translate(75.195312 0)"/>
     <use xlink:href="#DejaVuSans-441" transform="translate(136.376953 0)"/>
     <use xlink:href="#DejaVuSans-43b" transform="translate(191.357422 0)"/>
     <use xlink:href="#DejaVuSans-435" transform="translate(255.273438 0)"/>
     <use xlink:href="#DejaVuSans-20" transform="translate(316.796875 0)"/>
     <use xlink:href="#DejaVuSans-43f" transform="translate(348.583984 0)"/>
     <use xlink:href="#DejaVuSans-440" transform="translate(413.964844 0)"/>
     <use xlink:href="#DejaVuSans-435" transform="translate(477.441406 0)"/>
     <use xlink:href="#DejaVuSans-43e" transform="translate(538.964844 0)"/>
     <use xlink:href="#DejaVuSans-431" transform="translate(600.146484 0)"/>
     <use xlink:href="#DejaVuSans-440" transform="translate(661.816406 0)"/>
     <use xlink:href="#DejaVuSans-430" transform="translate(725.292969 0)"/>
     <use xlink:href="#DejaVuSans-437" transform="translate(786.572266 0)"/>
     <use xlink:href="#DejaVuSans-43e" transform="translate(839.746094 0)"/>
     <use xlink:href="#DejaVuSans-432" transform="translate(900.927734 0)"/>
     <use xlink:href="#DejaVuSans-430" transform="translate(959.863281 0)"/>
     <use xlink:href="#DejaVuSans-43d" transform="translate(1021.142578 0)"/>
     <use xlink:href="#DejaVuSans-438" transform="translate(1086.523438 0)"/>
     <use xlink:href="#DejaVuSans-44f" transform="translate(1151.513672 0)"/>
    </g>
   </g>
   <g id="legend_2">
    <g id="patch_13">
     <path d="M 712.020312 103.334432 
L 770.6 103.334432 
Q 772.6 103.334432 772.6 101.334432 
L 772.6 72.978182 
Q 772.6 70.978182 770.6 70.978182 
L 712.020312 70.978182 
Q 710.020312 70.978182 710.020312 72.978182 
L 710.020312 101.334432 
Q 710.020312 103.334432 712.020312 103.334432 
z
" style="fill: #ffffff; opacity: 0.8; stroke: #cccccc; stroke-linejoin: miter"/>
    </g>
    <g id="line2d_63">
     <path d="M 714.020312 79.076619 
L 724.020312 79.076619 
L 734.020312 79.076619 
" style="fill: none; stroke-dasharray: 5.55,2.4; stroke-dashoffset: 0; stroke: #008000; stroke-width: 1.5"/>
    </g>
    <g id="text_33">
     <!-- y=2x -->
     <g transform="translate(742.020312 82.576619) scale(0.1 -0.1)">
      <use xlink:href="#DejaVuSans-79"/>
      <use xlink:href="#DejaVuSans-3d" transform="translate(59.179688 0)"/>
      <use xlink:href="#DejaVuSans-32" transform="translate(142.96875 0)"/>
      <use xlink:href="#DejaVuSans-78" transform="translate(206.591797 0)"/>
     </g>
    </g>
    <g id="line2d_64">
     <path d="M 714.020312 93.754744 
L 724.020312 93.754744 
L 734.020312 93.754744 
" style="fill: none; stroke-dasharray: 5.55,2.4; stroke-dashoffset: 0; stroke: #0000ff; stroke-width: 1.5"/>
    </g>
    <g id="text_34">
     <!-- y=3x -->
     <g transform="translate(742.020312 97.254744) scale(0.1 -0.1)">
      <use xlink:href="#DejaVuSans-79"/>
      <use xlink:href="#DejaVuSans-3d" transform="translate(59.179688 0)"/>
      <use xlink:href="#DejaVuSans-33" transform="translate(142.96875 0)"/>
      <use xlink:href="#DejaVuSans-78" transform="translate(206.591797 0)"/>
     </g>
    </g>
   </g>
  </g>
 </g>
 <defs>
  <clipPath id="pb2e413f806">
   <rect x="108" y="65.978182" width="304.363636" height="304.363636"/>
  </clipPath>
  <clipPath id="pa319d1335e">
   <rect x="473.236364" y="65.978182" width="304.363636" height="304.363636"/>
  </clipPath>
 </defs>
</svg>
